<?xml version="1.0" standalone="no"?>
<!DOCTYPE svg PUBLIC "-//W3C//DTD SVG 20010904//EN"
 "http://www.w3.org/TR/2001/REC-SVG-20010904/DTD/svg10.dtd">
<svg version="1.0" xmlns="http://www.w3.org/2000/svg"
 width="499.000000pt" height="500.000000pt" viewBox="0 0 499.000000 500.000000"
 preserveAspectRatio="xMidYMid meet">

<g transform="translate(0.000000,500.000000) scale(0.100000,-0.100000)"
fill="#000000" stroke="none">
<path d="M2766 4214 c17 -8 93 -75 170 -149 76 -74 142 -135 146 -135 9 0
-228 232 -276 269 -21 17 -46 31 -55 31 -9 0 -2 -7 15 -16z"/>
<path d="M2618 4091 c-25 -22 -49 -41 -53 -41 -4 0 -39 -31 -79 -70 -93 -91
-111 -106 -130 -113 -9 -4 -16 -11 -16 -16 0 -6 -21 -25 -47 -43 -27 -17 -53
-37 -59 -43 -7 -5 -32 -26 -58 -45 -25 -19 -52 -50 -61 -67 -9 -18 -20 -33
-25 -33 -6 0 -10 -6 -10 -14 0 -8 -7 -17 -16 -20 -9 -3 -14 -12 -11 -19 3 -7
-6 -23 -19 -36 -13 -13 -24 -29 -24 -37 0 -8 -3 -13 -7 -12 -13 4 -93 -45 -93
-57 0 -14 -36 -45 -53 -45 -6 0 -34 -14 -62 -30 -27 -16 -55 -30 -62 -30 -11
0 -39 -23 -98 -80 -24 -24 -35 -25 -35 -6 0 8 14 26 31 40 17 14 26 26 21 26
-19 0 -156 -136 -207 -205 -42 -56 -74 -85 -161 -144 -60 -41 -135 -99 -167
-130 -57 -54 -115 -146 -102 -159 12 -12 30 -8 43 10 7 10 19 18 26 18 7 0 26
6 42 14 16 8 52 17 79 20 l50 6 -64 -25 c-95 -38 -163 -93 -198 -163 -10 -20
-19 -29 -23 -22 -4 6 -8 -52 -9 -128 -1 -121 1 -147 19 -193 23 -58 90 -172
97 -165 3 2 0 14 -7 25 -6 12 -7 21 -3 21 15 0 32 -49 19 -53 -14 -6 7 -43 23
-40 6 2 8 -3 5 -10 -7 -20 70 -130 128 -182 47 -42 50 -47 44 -83 -3 -20 -9
-75 -12 -122 -4 -47 -11 -91 -17 -98 -13 -17 -92 -57 -129 -66 -14 -3 -46 -24
-70 -47 -48 -45 -150 -106 -202 -120 -40 -11 -106 -61 -186 -140 -79 -79 -113
-153 -199 -436 -12 -40 -23 -85 -26 -100 -2 -15 -9 -41 -16 -58 -6 -16 -13
-48 -14 -70 -2 -22 -8 -41 -14 -43 -6 -2 -8 -8 -5 -13 3 -6 2 -15 -4 -22 -15
-20 -49 -170 -66 -290 l-12 -87 177 0 177 0 37 112 c20 62 69 178 109 258 40
80 99 210 131 290 92 234 147 360 156 360 5 0 6 6 3 14 -3 8 -1 17 5 20 11 7
7 -47 -5 -66 -4 -6 -8 -25 -10 -42 -2 -17 -5 -40 -8 -51 -3 -11 -18 -72 -34
-135 -36 -139 -82 -283 -95 -291 -5 -3 -8 -9 -8 -13 0 -3 -17 -44 -39 -90 -22
-46 -40 -95 -40 -108 0 -13 -6 -30 -12 -36 -7 -7 -20 -50 -30 -95 -9 -45 -20
-92 -23 -104 l-7 -23 373 0 c206 0 404 3 442 7 l67 6 0 42 c0 32 4 44 18 47
28 8 25 47 -4 54 -19 5 -24 12 -21 25 3 11 1 19 -5 19 -5 0 -8 20 -7 44 2 25
-3 51 -10 60 -7 8 -11 23 -9 33 4 22 -32 64 -39 46 -8 -23 -23 -14 -23 15 -1
35 -56 196 -70 200 -5 2 -10 10 -10 18 0 8 -9 33 -19 55 -11 21 -22 57 -26 79
-4 22 -10 38 -15 35 -4 -2 -10 21 -13 53 -3 31 -8 68 -11 82 -18 93 -38 227
-38 267 -3 104 4 172 17 177 8 3 15 15 17 28 2 13 9 22 16 20 7 -1 12 9 12 23
l0 26 98 -5 c104 -6 142 -13 142 -28 0 -5 8 -8 18 -7 52 5 102 -2 102 -14 0
-19 38 -34 83 -33 20 1 37 -2 37 -6 0 -4 9 -8 21 -8 11 0 28 -4 38 -9 19 -11
76 -13 156 -7 32 3 58 -1 72 -10 12 -8 33 -14 47 -14 13 0 26 -6 29 -14 3 -8
19 -17 35 -21 39 -8 68 -43 75 -92 4 -23 10 -50 13 -60 4 -13 3 -14 -4 -5 -11
16 -27 -88 -23 -158 1 -34 -1 -41 -8 -30 -12 18 -12 19 -16 -45 -1 -27 -8 -51
-14 -53 -6 -2 -11 -21 -11 -42 0 -21 -6 -45 -12 -52 -24 -25 -37 -83 -43 -193
-4 -60 -8 -125 -9 -143 -2 -21 2 -36 11 -39 8 -3 13 -21 13 -47 0 -43 12 -72
26 -63 8 4 9 -186 2 -238 -3 -19 3 -20 193 -23 l196 -2 7 103 c11 167 -21 552
-50 598 -2 4 14 76 35 160 74 298 108 503 118 710 6 121 5 129 -20 183 -17 37
-37 62 -56 74 -36 20 -36 17 -31 225 1 81 0 147 -3 147 -3 0 -13 -34 -22 -75
-9 -42 -22 -75 -28 -75 -22 0 -37 16 -47 49 -9 31 -6 36 35 76 25 23 45 46 45
49 0 4 -57 -46 -127 -110 -118 -109 -128 -120 -125 -150 1 -18 -2 -35 -8 -39
-5 -3 -10 -19 -10 -34 0 -53 -64 -151 -98 -151 -8 0 -45 -14 -81 -31 -58 -28
-73 -31 -124 -25 -32 3 -71 12 -86 21 -22 11 -30 12 -33 3 -3 -8 -14 -6 -34 8
-16 11 -50 30 -76 42 -27 12 -48 26 -48 30 0 4 -10 12 -22 17 -12 6 -30 26
-41 45 -10 19 -26 40 -35 46 -14 10 -15 15 -3 38 8 14 18 23 23 20 9 -6 11 10
1 19 -11 12 -9 67 3 67 6 0 14 18 18 40 3 22 10 40 14 40 4 0 8 25 9 56 3 60
28 124 48 124 7 0 27 23 45 50 31 49 33 50 80 50 27 0 50 5 52 11 2 6 14 5 33
-5 17 -9 35 -16 42 -16 6 0 13 -5 15 -10 2 -6 23 -13 48 -16 25 -3 48 -11 52
-17 4 -7 11 -12 15 -12 14 -1 45 -22 45 -31 -1 -5 6 -8 13 -6 10 2 13 -3 9
-13 -4 -8 -14 -14 -22 -13 -9 2 -17 -4 -17 -12 0 -8 -6 -25 -13 -38 -16 -27
-12 -94 6 -100 7 -2 12 5 12 16 0 36 28 87 70 128 l42 42 -80 57 c-44 32 -82
58 -86 57 -11 -2 -306 149 -306 157 0 17 27 30 103 49 43 11 82 23 85 27 4 4
-6 3 -22 -1 -16 -4 -27 -3 -25 2 2 5 22 45 45 89 22 44 62 132 89 196 36 88
55 120 76 133 38 22 81 20 115 -6 15 -13 91 -64 169 -115 267 -175 314 -211
301 -231 -4 -7 -20 -19 -36 -27 -25 -13 -38 -13 -77 -4 -27 7 -54 17 -62 23
-11 9 -13 8 -9 -4 8 -21 36 -147 43 -192 5 -29 11 -38 25 -38 11 0 20 -5 20
-11 0 -27 72 -158 109 -200 58 -66 118 -89 251 -96 100 -5 111 -4 163 20 l57
26 -16 -37 c-9 -20 -20 -49 -26 -64 -5 -15 -18 -44 -29 -64 -10 -21 -19 -43
-19 -49 0 -6 -23 -33 -50 -60 -57 -56 -70 -90 -70 -182 l0 -62 38 -11 c21 -5
67 -29 101 -52 77 -52 211 -201 211 -235 0 -13 -47 -115 -104 -226 -57 -111
-120 -242 -141 -292 -20 -49 -40 -99 -45 -110 -26 -57 -99 -312 -131 -460 -21
-97 -59 -293 -59 -307 0 -12 238 -10 261 2 11 7 19 21 19 38 0 15 7 51 15 81
8 30 12 58 9 63 -3 5 -2 14 3 21 5 7 10 22 11 34 1 20 20 72 43 115 5 10 9 27
9 38 0 12 4 19 9 15 6 -3 13 11 16 32 9 55 14 65 25 58 5 -3 10 3 10 14 0 11
5 23 10 26 6 3 10 17 10 31 0 14 6 24 14 24 9 0 16 16 20 45 4 24 11 47 16 50
5 3 20 30 34 60 15 33 35 59 49 66 17 8 23 17 20 33 -3 16 5 31 29 52 19 17
32 36 30 42 -2 7 4 12 12 12 9 0 19 8 22 18 23 67 36 83 49 62 3 -5 11 -10 17
-10 6 0 4 8 -5 18 -26 28 -20 35 8 10 20 -18 23 -24 12 -37 -10 -14 -10 -14 5
-3 19 15 42 7 32 -11 -4 -7 -4 -9 1 -5 10 10 36 -17 38 -40 0 -10 9 -18 20
-18 16 0 17 2 3 12 -26 19 -18 26 9 8 14 -9 22 -21 18 -27 -4 -6 0 -8 10 -4
10 3 17 2 17 -3 0 -6 8 -10 18 -10 10 0 23 -5 29 -11 7 -7 13 -7 17 -1 3 6
-21 28 -54 50 -33 21 -57 41 -54 44 3 3 -9 12 -25 19 -19 9 -31 21 -31 33 0
17 5 15 32 -12 17 -18 44 -40 60 -49 15 -10 28 -21 28 -25 0 -4 7 -8 16 -8 18
0 17 2 -16 52 -15 22 -33 38 -45 38 -26 1 -65 33 -70 58 -3 15 1 19 16 15 11
-3 28 2 37 10 17 15 19 15 34 -2 8 -10 21 -27 27 -37 10 -16 11 -12 9 24 -4
46 -1 50 17 26 10 -14 13 -13 29 11 10 15 15 33 12 41 -3 7 5 20 17 29 12 8
20 18 18 21 -2 3 12 27 31 53 18 25 49 72 67 105 18 32 37 64 42 70 34 43 56
75 69 101 8 17 28 52 43 80 16 27 30 56 32 65 9 46 18 70 26 70 5 0 9 11 9 24
0 13 7 27 16 30 9 3 14 12 11 19 -2 6 2 29 9 51 8 21 14 51 14 67 0 15 4 30 8
33 4 2 5 38 1 78 -4 40 -5 76 -2 81 2 4 -1 7 -7 7 -6 0 -9 4 -6 9 4 5 3 11 -1
13 -5 1 -16 18 -26 37 -17 32 -17 33 -1 20 16 -12 17 -12 11 5 -7 17 -6 18 15
4 13 -9 28 -33 35 -54 14 -47 16 -190 4 -230 -5 -16 -19 -63 -32 -104 -21 -71
-55 -165 -101 -275 -11 -27 -39 -81 -63 -120 -90 -149 -163 -321 -214 -500
-23 -83 -28 -119 -42 -335 -10 -154 -39 -380 -74 -564 -8 -43 -15 -80 -15 -82
0 -2 207 -4 459 -4 l459 0 -5 23 c-3 12 -29 101 -58 197 -29 96 -61 207 -70
245 -18 79 -94 323 -133 430 -25 69 -95 177 -156 243 -17 18 -73 60 -123 93
-71 46 -93 65 -93 82 0 12 28 69 63 127 34 58 70 121 80 141 40 85 109 281
133 378 l26 103 -17 90 c-22 110 -55 165 -182 294 -48 50 -99 109 -113 132
-14 22 -91 114 -171 204 -80 90 -163 189 -184 221 -38 57 -49 70 -39 43 19
-48 -81 10 -159 94 -26 28 -51 49 -55 46 -4 -3 -17 9 -27 25 -11 16 -23 29
-27 29 -5 0 -8 7 -8 16 0 8 -5 25 -12 37 -7 12 -11 32 -9 44 1 14 -5 23 -18
28 -12 4 -18 12 -14 21 3 8 -2 30 -12 50 -9 19 -14 42 -11 50 3 8 1 14 -4 14
-6 0 -10 14 -10 30 0 26 -7 34 -30 32 -3 0 -6 11 -7 26 0 14 -7 31 -15 36 -7
6 -19 23 -27 38 -8 15 -17 25 -21 23 -4 -3 -15 4 -25 15 -10 11 -23 20 -29 20
-6 0 -24 12 -41 26 -16 14 -42 33 -57 42 -16 9 -28 20 -28 24 0 4 -8 8 -18 8
-19 0 -139 112 -202 188 -19 23 -40 42 -46 42 -6 0 -20 10 -32 23 -40 42 -54
49 -111 54 -58 5 -59 5 -103 -36z m804 -1493 c15 -12 15 -21 -8 -106 -37 -142
-68 -193 -150 -248 -49 -32 -57 -34 -138 -34 -142 0 -221 43 -294 161 -27 45
-52 123 -52 165 l0 31 103 17 c143 23 142 23 343 25 131 1 185 -2 196 -11z
m-2397 -421 c2 -15 7 -33 10 -40 4 -6 -2 -1 -13 12 -24 30 -52 117 -52 162 1
30 4 25 26 -36 13 -38 26 -82 29 -98z m3350 143 c4 -6 1 -9 -6 -8 -6 2 -14 -3
-17 -11 -3 -10 0 -12 14 -7 15 6 17 5 7 -5 -20 -20 -41 4 -23 26 15 18 17 18
25 5z m-3317 -225 c-3 -3 -9 2 -12 12 -6 14 -5 15 5 6 7 -7 10 -15 7 -18z
m102 -155 c0 -5 -2 -10 -4 -10 -3 0 -8 5 -11 10 -3 6 -1 10 4 10 6 0 11 -4 11
-10z m2595 -820 c-3 -5 1 -10 9 -10 9 0 16 -4 16 -10 0 -5 -4 -10 -9 -10 -13
0 -32 26 -24 33 10 10 15 8 8 -3z m52 -55 c0 -8 -4 -12 -9 -9 -5 3 -6 10 -3
15 9 13 12 11 12 -6z m-1490 -367 c-3 -8 -6 -5 -6 6 -1 11 2 17 5 13 3 -3 4
-12 1 -19z"/>
<path d="M3170 3867 c0 -3 30 -28 67 -56 37 -29 85 -76 106 -104 52 -69 64
-80 36 -33 -28 47 -104 125 -164 166 -25 17 -45 29 -45 27z"/>
<path d="M3430 3586 c0 -10 59 -96 66 -96 3 0 -9 21 -27 48 -39 57 -39 57 -39
48z"/>
<path d="M3519 3445 c17 -33 31 -51 31 -40 0 6 -10 21 -21 35 -13 17 -17 18
-10 5z"/>
<path d="M2390 2796 c0 -13 -3 -32 -7 -42 -6 -15 -1 -16 45 -10 29 4 59 9 67
12 19 8 9 24 -13 24 -10 0 -34 9 -55 20 l-37 20 0 -24z"/>
<path d="M2220 2695 c-19 -7 -28 -13 -20 -13 8 0 31 6 50 13 19 7 28 13 20 13
-8 0 -31 -6 -50 -13z"/>
<path d="M2118 2663 c7 -3 16 -2 19 1 4 3 -2 6 -13 5 -11 0 -14 -3 -6 -6z"/>
<path d="M2577 2618 c11 -13 28 -38 38 -56 9 -19 19 -32 21 -29 8 7 -49 96
-66 102 -9 4 -7 -2 7 -17z"/>
<path d="M2435 2470 c50 -52 92 -94 93 -93 2 1 -9 26 -25 55 -21 40 -33 52
-48 50 -10 -2 -26 5 -34 15 -9 10 -29 29 -46 43 -16 14 11 -18 60 -70z"/>
<path d="M2529 2353 c-7 -46 -19 -60 -119 -133 -54 -39 -105 -79 -112 -88 -11
-13 -10 -15 14 -9 15 4 30 3 33 -3 4 -6 11 -8 16 -5 5 4 9 -9 9 -27 0 -51 11
-78 30 -78 14 0 16 7 12 49 -4 41 1 58 28 110 19 34 51 82 73 107 34 39 38 48
29 67 -6 12 -12 16 -13 10z"/>
<path d="M3122 1560 c0 -19 2 -27 5 -17 2 9 2 25 0 35 -3 9 -5 1 -5 -18z"/>
<path d="M3821 367 c-5 -13 -16 -29 -25 -36 -18 -15 -22 -51 -6 -51 6 0 10 -5
10 -11 0 -5 -4 -7 -10 -4 -12 7 -24 -39 -16 -60 3 -8 1 -15 -3 -15 -15 0 -32
-61 -22 -78 10 -18 3 -51 -16 -74 -18 -20 -8 -26 41 -24 39 1 40 2 53 51 8 28
13 91 13 145 -1 52 -2 114 -2 138 1 47 -4 53 -17 19z"/>
<path d="M3851 294 c0 -11 3 -14 6 -6 3 7 2 16 -1 19 -3 4 -6 -2 -5 -13z"/>
<path d="M1700 60 c0 -5 5 -10 10 -10 6 0 10 5 10 10 0 6 -4 10 -10 10 -5 0
-10 -4 -10 -10z"/>
</g>
</svg>
